<svg xmlns="http://www.w3.org/2000/svg" viewBox="0 0 2000 2000" width="2000" height="2000">
  <defs>
    <linearGradient id="bg" x1="0" y1="0" x2="1" y2="1">
      <stop offset="0%" stop-color="#E8F5E9"/>
      <stop offset="100%" stop-color="#C8E6C9"/>
    </linearGradient>
    <linearGradient id="bodyGrad" x1="0" y1="0" x2="0.4" y2="1">
      <stop offset="0%" stop-color="#81C784"/>
      <stop offset="100%" stop-color="#66BB6A"/>
    </linearGradient>
  </defs>
  <rect width="2000" height="2000" rx="280" fill="url(#bg)"/>
  <ellipse cx="950" cy="1050" rx="420" ry="380" fill="url(#bodyGrad)"/>
  <ellipse cx="1000" cy="1150" rx="280" ry="240" fill="#A5D6A7" opacity="0.6"/>
  <circle cx="620" cy="900" r="260" fill="#81C784"/>
  <path d="M560 700 C540 620 580 540 650 540 C700 540 720 580 710 640" fill="#81C784"/>
  <path d="M580 660 C570 610 600 560 650 560 C685 560 700 590 695 630" fill="#A5D6A7" opacity="0.5"/>
  <circle cx="620" cy="860" r="110" fill="#FFF"/>
  <circle cx="620" cy="860" r="75" fill="#333"/>
  <circle cx="600" cy="835" r="30" fill="#FFF"/>
  <circle cx="640" cy="875" r="12" fill="#FFF"/>
  <ellipse cx="520" cy="960" rx="45" ry="30" fill="#FFAB91" opacity="0.5"/>
  <path d="M540 940 Q570 980 600 960" fill="none" stroke="#388E3C" stroke-width="10" stroke-linecap="round"/>
  <ellipse cx="720" cy="1280" rx="80" ry="55" fill="#66BB6A" transform="rotate(-15 720 1280)"/>
  <ellipse cx="850" cy="1300" rx="75" ry="50" fill="#66BB6A" transform="rotate(-10 850 1300)"/>
  <ellipse cx="1150" cy="1280" rx="80" ry="55" fill="#66BB6A" transform="rotate(15 1150 1280)"/>
  <ellipse cx="1280" cy="1260" rx="75" ry="50" fill="#66BB6A" transform="rotate(10 1280 1260)"/>
  <path d="M1370 1050 C1480 1020 1550 1080 1550 1180 C1550 1280 1460 1340 1400 1300 C1340 1260 1360 1160 1420 1140 C1480 1120 1520 1160 1500 1220 C1480 1260 1440 1260 1420 1240" fill="none" stroke="#66BB6A" stroke-width="65" stroke-linecap="round" stroke-linejoin="round"/>
  <g transform="translate(1250,750) scale(2.2) translate(-1240,-1580)">
    <path d="M1240 1480 C1200 1480 1160 1510 1160 1550 C1160 1600 1240 1680 1240 1680 C1240 1680 1320 1600 1320 1550 C1320 1510 1280 1480 1240 1480Z" fill="#64B5F6" stroke="#42A5F5" stroke-width="4"/>
    <circle cx="1240" cy="1550" r="35" fill="#FFF" opacity="0.7"/>
  </g>
  <path d="M380 700 C380 680 400 670 410 690 C420 670 440 680 440 700 C440 730 410 745 410 745 C410 745 380 730 380 700Z" fill="#EF9A9A" opacity="0.6" transform="scale(0.9) translate(50,80)"/>
</svg>
